<?xml version="1.0" standalone="no"?>
<!DOCTYPE svg PUBLIC "-//W3C//DTD SVG 20010904//EN"
 "http://www.w3.org/TR/2001/REC-SVG-20010904/DTD/svg10.dtd">
<svg version="1.0" xmlns="http://www.w3.org/2000/svg"
 width="196.000000pt" height="196.000000pt" viewBox="0 0 196.000000 196.000000"
 preserveAspectRatio="xMidYMid meet">
<metadata>
Created by potrace 1.11, written by Peter Selinger 2001-2013
</metadata>
<g transform="translate(0.000000,196.000000) scale(0.100000,-0.100000)"
fill="#000000" stroke="none">
<path d="M492 1846 c-40 -89 -35 -217 14 -324 14 -30 23 -56 22 -58 -7 -6 -91
17 -128 36 -50 26 -95 64 -140 122 l-38 47 -15 -32 c-85 -182 -49 -366 104
-523 l49 -50 -35 4 c-41 5 -42 2 -20 -81 29 -113 70 -163 109 -133 25 18 66
154 73 236 3 41 7 76 8 78 1 2 30 -6 64 -18 82 -27 220 -27 316 0 38 11 73 20
77 20 17 0 6 -18 -44 -74 -55 -62 -139 -111 -211 -122 -57 -10 -54 -22 9 -30
173 -21 361 38 487 154 l27 26 0 -35 c0 -39 -30 -101 -68 -141 l-26 -28 31 0
c26 0 68 7 150 24 52 11 111 55 142 107 l21 34 1 -35 c0 -19 2 -46 4 -60 2
-14 6 -51 10 -82 4 -32 9 -58 13 -59 4 0 15 -2 24 -4 50 -9 100 82 99 180 l0
60 28 -32 c28 -30 29 -30 35 -10 20 75 -8 167 -70 233 -24 26 -44 49 -44 51 0
2 20 3 45 3 48 0 52 12 12 41 -41 30 -123 31 -189 4 -17 -7 -18 2 -18 106 l-1
114 -34 -55 c-19 -30 -38 -61 -43 -69 -6 -11 -16 -4 -40 31 -23 34 -49 55 -94
77 -57 29 -68 31 -172 31 -203 0 -326 49 -457 182 -73 73 -77 76 -87 54z"/>
<path d="M572 895 c-54 -17 -92 -41 -92 -59 0 -24 20 -23 74 3 71 34 151 34
228 -1 50 -23 58 -25 70 -11 16 19 -4 35 -79 63 -61 23 -138 25 -201 5z"/>
<path d="M1106 825 c-3 -8 4 -21 15 -28 19 -14 19 -15 -10 -20 -16 -3 -40 -16
-53 -29 -19 -19 -34 -23 -85 -23 -35 0 -63 3 -63 8 0 4 -15 16 -32 27 -30 18
-51 20 -219 20 l-186 0 -44 -30 c-24 -16 -51 -30 -60 -30 -21 0 -39 -20 -39
-44 0 -11 16 -34 35 -52 24 -22 35 -41 35 -60 1 -46 36 -112 72 -134 30 -18
50 -20 201 -20 133 0 174 3 198 16 41 21 69 84 69 156 0 48 4 59 21 68 33 18
49 -4 49 -68 0 -68 28 -131 69 -155 24 -14 56 -17 193 -17 144 0 167 2 195 20
36 22 67 76 76 134 4 26 17 49 37 67 16 15 30 33 30 39 0 23 -21 50 -39 50
-10 0 -35 14 -56 30 -21 17 -47 30 -58 30 -19 0 -19 1 -3 19 33 36 13 41 -169
41 -143 0 -174 -3 -179 -15z m-261 -140 c21 -21 25 -33 25 -88 0 -50 -5 -70
-21 -91 l-20 -26 -149 0 c-140 0 -150 1 -175 23 -27 23 -44 76 -45 139 0 64
11 68 196 68 162 0 165 0 189 -25z m616 15 c35 -19 22 -154 -19 -195 -24 -24
-28 -25 -173 -25 -148 0 -148 0 -168 26 -16 21 -21 41 -21 91 0 55 4 67 25 88
24 24 28 25 180 25 89 0 165 -4 176 -10z"/>
<path d="M606 675 c-3 -9 -6 -18 -6 -19 0 -1 15 0 34 2 27 3 37 0 45 -17 14
-25 -1 -61 -24 -61 -20 0 -19 -16 1 -24 68 -26 138 23 132 93 l-3 36 -86 3
c-72 2 -88 0 -93 -13z"/>
<path d="M1177 684 c-17 -17 -4 -29 30 -29 35 0 38 -2 41 -32 2 -23 -2 -34
-16 -42 -11 -6 -23 -7 -28 -3 -5 4 -2 -1 5 -10 23 -30 87 -24 122 12 25 24 30
37 27 67 l-3 38 -85 3 c-47 1 -89 0 -93 -4z"/>
<path d="M1098 348 c-6 -43 -141 -64 -214 -33 -38 16 -54 13 -54 -9 0 -42 163
-62 249 -32 24 9 56 16 72 16 37 0 37 18 1 53 -34 33 -50 34 -54 5z"/>
</g>
</svg>
