<?xml version="1.0" standalone="no"?>
<!DOCTYPE svg PUBLIC "-//W3C//DTD SVG 20010904//EN"
 "http://www.w3.org/TR/2001/REC-SVG-20010904/DTD/svg10.dtd">
<svg version="1.0" xmlns="http://www.w3.org/2000/svg"
 width="500.000000pt" height="500.000000pt" viewBox="0 0 500.000000 500.000000"
 preserveAspectRatio="xMidYMid meet">
<metadata>
Created by potrace 1.11, written by Peter Selinger 2001-2013
</metadata>
<g transform="translate(0.000000,500.000000) scale(0.100000,-0.100000)"
fill="#000000" stroke="none">
<path d="M1947 3518 c-26 -66 -38 -147 -31 -202 8 -68 40 -171 71 -224 14 -24
23 -46 20 -48 -8 -9 -113 19 -174 46 -70 32 -149 101 -190 166 -16 24 -31 44
-34 44 -9 0 -49 -96 -65 -155 -46 -171 22 -379 173 -533 l74 -74 -51 7 c-27 4
-50 3 -50 -2 1 -31 36 -149 62 -205 50 -110 90 -103 136 25 37 101 52 179 52
264 0 35 2 63 4 63 2 0 28 -11 57 -24 119 -54 307 -55 474 -2 41 13 76 21 79
19 8 -9 -48 -84 -99 -135 -59 -57 -148 -102 -246 -125 -68 -15 -72 -17 -44
-25 62 -16 172 -20 250 -8 151 23 279 81 405 183 32 26 61 47 65 47 3 0 3 -12
0 -27 -18 -101 -30 -127 -87 -189 l-41 -44 34 0 c19 1 68 7 109 14 131 24 203
63 255 140 40 58 37 63 55 -119 7 -67 17 -123 23 -127 17 -11 70 2 84 21 47
60 77 173 63 234 -4 20 -4 37 0 37 22 0 42 -15 57 -44 15 -28 17 -29 24 -11
23 59 -3 190 -52 261 -17 25 -49 58 -71 74 -35 26 -38 31 -22 37 24 9 71 9
109 -1 l30 -8 -25 28 c-58 62 -173 82 -257 45 l-41 -19 -7 35 c-3 20 -3 79 0
133 5 60 4 100 -2 103 -6 4 -30 -32 -54 -78 -24 -47 -47 -85 -51 -85 -4 0 -19
23 -34 50 -29 53 -63 84 -129 117 -61 31 -138 43 -270 41 -138 -2 -211 13
-320 67 -90 44 -170 108 -236 187 -28 35 -55 64 -59 66 -4 1 -14 -17 -23 -40z"/>
<path d="M2044 2322 c-69 -24 -104 -48 -104 -71 0 -30 20 -30 84 3 53 28 69
31 145 31 75 0 94 -4 151 -31 70 -33 90 -34 90 -3 0 15 -18 28 -67 52 -58 26
-82 32 -158 34 -68 3 -103 -1 -141 -15z"/>
<path d="M2733 2235 c-3 -9 -1 -21 4 -26 5 -5 99 -8 229 -7 211 3 219 4 219
23 0 19 -8 20 -223 23 -195 2 -223 0 -229 -13z"/>
<path d="M1905 2165 c-16 -9 -37 -24 -47 -35 -9 -11 -28 -20 -43 -20 -37 0
-78 -44 -69 -73 9 -30 24 -47 40 -47 21 0 41 -40 48 -93 8 -63 38 -120 83
-154 l36 -28 211 -3 c115 -2 220 -1 232 2 34 9 85 56 102 96 9 19 18 73 21
120 l6 85 40 0 40 0 5 -90 c6 -108 34 -166 92 -196 33 -17 61 -19 239 -19 199
0 203 0 246 25 50 30 86 92 97 169 6 38 16 56 47 87 21 21 39 45 39 54 0 24
-46 65 -73 65 -13 0 -32 9 -43 21 -41 46 -61 49 -288 49 -227 0 -253 -4 -298
-47 -25 -24 -35 -26 -104 -25 -67 0 -79 3 -103 26 -44 42 -70 46 -304 46 -179
0 -228 -3 -252 -15z m496 -104 c27 -28 29 -34 29 -111 0 -146 -5 -149 -247
-150 l-193 0 -31 28 c-34 30 -47 79 -48 179 -1 81 3 83 252 83 l209 0 29 -29z
m790 8 c19 -19 21 -28 14 -98 -4 -42 -13 -90 -20 -107 -25 -60 -40 -64 -248
-64 -186 0 -188 0 -212 25 -23 22 -25 32 -25 115 0 88 1 93 29 121 l29 29 206
0 c196 0 207 -1 227 -21z"/>
<path d="M2150 2050 c-9 -16 -8 -20 4 -20 22 0 49 -45 41 -70 -9 -29 29 -27
60 5 27 27 32 61 11 88 -20 26 -102 24 -116 -3z"/>
<path d="M2876 2054 c-4 -10 3 -23 20 -36 20 -16 25 -28 22 -49 -6 -37 22 -39
57 -4 27 27 32 61 11 88 -18 23 -101 24 -110 1z"/>
<path d="M2725 1648 c-2 -7 -5 -22 -7 -32 -7 -44 -192 -65 -273 -32 -50 21
-65 20 -65 -5 0 -14 13 -26 48 -42 71 -32 195 -30 280 5 34 14 65 22 68 17 8
-14 44 -11 50 5 5 13 -71 96 -88 96 -5 0 -10 -6 -13 -12z"/>
</g>
</svg>
